<svg xmlns="http://www.w3.org/2000/svg" xmlns:xlink="http://www.w3.org/1999/xlink" width="1920" zoomAndPan="magnify" viewBox="0 0 1440 329.999987" height="440" preserveAspectRatio="xMidYMid meet" version="1.0"><defs><g/><clipPath id="ae5818f690"><rect x="0" width="1440" y="0" height="330"/></clipPath></defs><g><g clip-path="url(#ae5818f690)"><g fill="#b2b41f" fill-opacity="1"><g transform="translate(0.0000283636, 258.432914)"><g><path d="M 96.5625 3.625 C 83.382812 3.625 71.554688 2.046875 61.078125 -1.109375 C 50.597656 -4.265625 41.691406 -8.671875 34.359375 -14.328125 C 27.035156 -19.984375 21.332031 -26.660156 17.25 -34.359375 C 13.164062 -42.054688 10.941406 -50.359375 10.578125 -59.265625 L 51.75 -59.265625 C 52.5 -54.253906 54.171875 -49.800781 56.765625 -45.90625 C 59.359375 -42.007812 62.648438 -38.765625 66.640625 -36.171875 C 70.628906 -33.578125 75.175781 -31.628906 80.28125 -30.328125 C 85.382812 -29.035156 90.90625 -28.390625 96.84375 -28.390625 C 104.257812 -28.390625 110.9375 -29.316406 116.875 -31.171875 C 122.8125 -33.023438 127.539062 -35.941406 131.0625 -39.921875 C 134.582031 -43.910156 136.34375 -48.96875 136.34375 -55.09375 C 136.34375 -58.988281 135.507812 -62.46875 133.84375 -65.53125 C 132.175781 -68.59375 129.625 -71.1875 126.1875 -73.3125 C 122.757812 -75.445312 118.539062 -77.070312 113.53125 -78.1875 L 76.515625 -86.8125 C 69.097656 -88.664062 61.722656 -90.84375 54.390625 -93.34375 C 47.066406 -95.851562 40.578125 -99.148438 34.921875 -103.234375 C 29.265625 -107.316406 24.71875 -112.648438 21.28125 -119.234375 C 17.851562 -125.816406 16.140625 -133.929688 16.140625 -143.578125 C 16.140625 -152.296875 17.992188 -160.226562 21.703125 -167.375 C 25.410156 -174.519531 30.695312 -180.6875 37.5625 -185.875 C 44.425781 -191.070312 52.726562 -195.109375 62.46875 -197.984375 C 72.207031 -200.859375 83.015625 -202.296875 94.890625 -202.296875 C 106.578125 -202.296875 117.101562 -200.90625 126.46875 -198.125 C 135.84375 -195.34375 143.867188 -191.398438 150.546875 -186.296875 C 157.222656 -181.191406 162.507812 -175.113281 166.40625 -168.0625 C 170.300781 -161.019531 172.429688 -153.320312 172.796875 -144.96875 L 131.625 -144.96875 C 130.875 -150.351562 128.921875 -154.992188 125.765625 -158.890625 C 122.617188 -162.785156 118.351562 -165.84375 112.96875 -168.0625 C 107.59375 -170.289062 101.285156 -171.40625 94.046875 -171.40625 C 87.191406 -171.40625 81.070312 -170.382812 75.6875 -168.34375 C 70.3125 -166.3125 66.09375 -163.484375 63.03125 -159.859375 C 59.96875 -156.242188 58.4375 -151.835938 58.4375 -146.640625 C 58.4375 -142.742188 59.316406 -139.3125 61.078125 -136.34375 C 62.835938 -133.375 65.523438 -130.867188 69.140625 -128.828125 C 72.765625 -126.796875 77.453125 -125.128906 83.203125 -123.828125 L 124.109375 -114.640625 C 135.234375 -112.046875 144.878906 -108.382812 153.046875 -103.65625 C 161.210938 -98.925781 167.472656 -92.847656 171.828125 -85.421875 C 176.191406 -78.003906 178.375 -68.914062 178.375 -58.15625 C 178.375 -48.132812 176.378906 -39.320312 172.390625 -31.71875 C 168.398438 -24.113281 162.738281 -17.664062 155.40625 -12.375 C 148.082031 -7.09375 139.457031 -3.101562 129.53125 -0.40625 C 119.601562 2.28125 108.613281 3.625 96.5625 3.625 Z M 96.5625 3.625 "/></g></g></g><g fill="#b2b41f" fill-opacity="1"><g transform="translate(181.974295, 258.432914)"><g><path d="M 67.890625 0 L 67.890625 -164.734375 L 6.40625 -164.734375 L 6.40625 -198.6875 L 170.296875 -198.6875 L 170.296875 -164.734375 L 108.796875 -164.734375 L 108.796875 0 Z M 67.890625 0 "/></g></g></g><g fill="#b2b41f" fill-opacity="1"><g transform="translate(358.940625, 258.432914)"><g><path d="M 98.5 3.625 C 82.175781 3.625 67.9375 0.75 55.78125 -5 C 43.632812 -10.757812 34.175781 -19.296875 27.40625 -30.609375 C 20.632812 -41.921875 17.25 -55.742188 17.25 -72.078125 L 17.25 -198.6875 L 58.4375 -198.6875 L 58.4375 -73.46875 C 58.4375 -63.445312 60.195312 -55.1875 63.71875 -48.6875 C 67.25 -42.195312 72.117188 -37.421875 78.328125 -34.359375 C 84.546875 -31.304688 91.644531 -29.78125 99.625 -29.78125 C 107.59375 -29.78125 114.640625 -31.304688 120.765625 -34.359375 C 126.890625 -37.421875 131.710938 -42.195312 135.234375 -48.6875 C 138.765625 -55.1875 140.53125 -63.445312 140.53125 -73.46875 L 140.53125 -198.6875 L 177.8125 -198.6875 L 177.8125 -72.90625 C 177.8125 -56.394531 174.703125 -42.429688 168.484375 -31.015625 C 162.273438 -19.609375 153.28125 -10.984375 141.5 -5.140625 C 129.71875 0.703125 115.382812 3.625 98.5 3.625 Z M 98.5 3.625 "/></g></g></g><g fill="#b2b41f" fill-opacity="1"><g transform="translate(554.271387, 258.432914)"><g><path d="M 19.203125 0 L 19.203125 -198.6875 L 96.84375 -198.6875 C 110.5625 -198.6875 123.21875 -196.363281 134.8125 -191.71875 C 146.414062 -187.082031 156.53125 -180.40625 165.15625 -171.6875 C 173.78125 -162.96875 180.457031 -152.53125 185.1875 -140.375 C 189.914062 -128.226562 192.28125 -114.550781 192.28125 -99.34375 C 192.28125 -87.28125 190.75 -76.097656 187.6875 -65.796875 C 184.625 -55.503906 180.265625 -46.273438 174.609375 -38.109375 C 168.953125 -29.953125 162.179688 -23.046875 154.296875 -17.390625 C 146.410156 -11.734375 137.644531 -7.421875 128 -4.453125 C 118.351562 -1.484375 107.96875 0 96.84375 0 Z M 60.390625 -33.109375 L 93.5 -33.109375 C 99.4375 -33.109375 105.1875 -33.941406 110.75 -35.609375 C 116.3125 -37.285156 121.503906 -39.882812 126.328125 -43.40625 C 131.148438 -46.9375 135.273438 -51.34375 138.703125 -56.625 C 142.140625 -61.914062 144.832031 -68.128906 146.78125 -75.265625 C 148.726562 -82.410156 149.703125 -90.4375 149.703125 -99.34375 C 149.703125 -110.65625 148.21875 -120.484375 145.25 -128.828125 C 142.28125 -137.179688 138.195312 -144.046875 133 -149.421875 C 127.8125 -154.804688 121.832031 -158.84375 115.0625 -161.53125 C 108.289062 -164.21875 101.101562 -165.5625 93.5 -165.5625 L 60.390625 -165.5625 Z M 60.390625 -33.109375 "/></g></g></g><g fill="#b2b41f" fill-opacity="1"><g transform="translate(758.506115, 258.432914)"><g><path d="M 19.203125 0 L 19.203125 -198.6875 L 60.390625 -198.6875 L 60.390625 0 Z M 19.203125 0 "/></g></g></g><g fill="#b2b41f" fill-opacity="1"><g transform="translate(838.085315, 258.432914)"><g><path d="M 108.25 3.625 C 89.132812 3.625 72.34375 -0.546875 57.875 -8.890625 C 43.40625 -17.242188 32.132812 -29.117188 24.0625 -44.515625 C 16 -59.921875 11.96875 -78.195312 11.96875 -99.34375 C 11.96875 -110.101562 12.988281 -120.070312 15.03125 -129.25 C 17.070312 -138.4375 20.082031 -146.878906 24.0625 -154.578125 C 28.050781 -162.273438 32.875 -169.09375 38.53125 -175.03125 C 44.195312 -180.96875 50.597656 -185.929688 57.734375 -189.921875 C 64.878906 -193.910156 72.671875 -196.96875 81.109375 -199.09375 C 89.554688 -201.226562 98.601562 -202.296875 108.25 -202.296875 C 127.351562 -202.296875 144.140625 -198.164062 158.609375 -189.90625 C 173.078125 -181.65625 184.347656 -169.878906 192.421875 -154.578125 C 200.492188 -139.273438 204.53125 -120.863281 204.53125 -99.34375 C 204.53125 -88.769531 203.460938 -78.890625 201.328125 -69.703125 C 199.191406 -60.523438 196.175781 -52.128906 192.28125 -44.515625 C 188.382812 -36.910156 183.609375 -30.09375 177.953125 -24.0625 C 172.296875 -18.039062 165.894531 -12.988281 158.75 -8.90625 C 151.601562 -4.820312 143.8125 -1.710938 135.375 0.421875 C 126.9375 2.554688 117.894531 3.625 108.25 3.625 Z M 108.25 -30.046875 C 113.8125 -30.046875 119.003906 -30.695312 123.828125 -32 C 128.648438 -33.300781 133.007812 -35.25 136.90625 -37.84375 C 140.800781 -40.4375 144.328125 -43.679688 147.484375 -47.578125 C 150.640625 -51.472656 153.28125 -55.972656 155.40625 -61.078125 C 157.539062 -66.179688 159.164062 -71.929688 160.28125 -78.328125 C 161.394531 -84.734375 161.953125 -91.738281 161.953125 -99.34375 C 161.953125 -114.550781 159.769531 -127.300781 155.40625 -137.59375 C 151.050781 -147.894531 144.882812 -155.640625 136.90625 -160.828125 C 128.925781 -166.023438 119.375 -168.625 108.25 -168.625 C 102.675781 -168.625 97.523438 -167.972656 92.796875 -166.671875 C 88.066406 -165.378906 83.707031 -163.429688 79.71875 -160.828125 C 75.726562 -158.234375 72.15625 -154.988281 69 -151.09375 C 65.851562 -147.195312 63.210938 -142.695312 61.078125 -137.59375 C 58.941406 -132.5 57.316406 -126.75 56.203125 -120.34375 C 55.097656 -113.945312 54.546875 -106.945312 54.546875 -99.34375 C 54.546875 -84.125 56.722656 -71.367188 61.078125 -61.078125 C 65.441406 -50.785156 71.65625 -43.039062 79.71875 -37.84375 C 87.789062 -32.644531 97.300781 -30.046875 108.25 -30.046875 Z M 108.25 -30.046875 "/></g></g></g><g fill="#b2b41f" fill-opacity="1"><g transform="translate(1054.599276, 258.432914)"><g/></g></g><g fill="#b2b41f" fill-opacity="1"><g transform="translate(1123.883293, 258.432914)"><g/></g></g><g fill="#b2b41f" fill-opacity="1"><g transform="translate(1193.167311, 258.432914)"><g/></g></g><g fill="#b2b41f" fill-opacity="1"><g transform="translate(1262.462676, 258.432914)"><g><path d="M 19.203125 0 L 19.203125 -198.6875 L 161.109375 -198.6875 L 161.109375 -165.5625 L 60.390625 -165.5625 L 60.390625 -117.703125 L 151.09375 -117.703125 L 151.09375 -85.421875 L 60.390625 -85.421875 L 60.390625 -33.109375 L 161.109375 -33.109375 L 161.109375 0 Z M 19.203125 0 "/></g></g></g></g></g><path stroke-linecap="butt" transform="matrix(0.75, 0, 0, 0.75, 1058.891199, 150.374988)" fill="none" stroke-linejoin="miter" d="M -0.000764706 19.500018 L 271.650299 19.500018 " stroke="#b2b41f" stroke-width="39" stroke-opacity="1" stroke-miterlimit="4"/></svg>